<svg class="icon" viewBox="0 0 1024 1024" version="1.1" xmlns="http://www.w3.org/2000/svg" width="18" height="18">
  <path d="M787.004367 460.576419m-59.621543 0a59.621543 59.621543 0 1 0 119.243086 0 59.621543 59.621543 0 1 0-119.243086 0Z" fill="#515151" />
  <path d="M542.556041 292.14556m-102.847162 0a102.847162 102.847162 0 1 0 205.694323 0 102.847162 102.847162 0 1 0-205.694323 0Z" fill="#515151" />
  <path d="M885.379913 172.902475c-52.16885-56.640466-119.243086-110.299854-287.673945-111.790393-65.583697 0-165.449782 14.905386-244.448326 96.885007-47.697234 49.187773-81.979622 113.280932-71.545852 216.128093 1.490539 22.358079 34.282387 47.697234 11.924309 90.922853 0 0-47.697234 84.960699-46.206696 98.375546 0 0-1.490539 25.339156 38.754003 26.829694 0 0 10.43377 1.490539 7.452693 23.848617v31.30131s1.490539 8.943231 19.377001 14.905386c0 0 2.981077 2.981077-1.490538 8.943232 0 0-8.943231 10.43377 5.962154 32.791848 5.962154 7.452693 14.905386 17.886463 8.943232 38.754003 0 0-7.452693 40.244541 8.943231 49.187773 0 0 17.886463 20.86754 89.432314 11.924309 25.339156-2.981077 71.545852-14.905386 99.866085 19.377001 0 0 47.697234 77.508006 53.659389 107.318777 0 0 141.601164-105.828239 280.221251-137.129548 0 0-44.716157-123.714702 23.848618-222.090248 0 0 86.451237-113.280932 87.941775-175.883552 0 4.471616 22.358079-99.866084-84.960698-220.599708zM642.422125 414.369723c-2.981077 2.981077-7.452693 5.962154-11.924308 7.452693-4.471616 2.981077-10.43377 5.962154-14.905386 8.943232V463.557496l-13.414847 4.471616c-2.981077 1.490539-5.962154 1.490539-7.452693 2.981077-5.962154-8.943231-13.414847-16.395924-19.377002-25.339156-7.452693 1.490539-13.414847 2.981077-20.86754 2.981078-4.471616 8.943231-8.943231 19.377001-13.414847 29.810771 0 0 0 1.490539-1.490538 1.490539-7.452693 0-14.905386-1.490539-22.358079-1.490539-2.981077-10.43377-5.962154-22.358079-8.943231-32.791849 0-1.490539-1.490539-1.490539-2.981078-1.490538-7.452693-1.490539-13.414847-4.471616-19.377001-5.962154-8.943231 7.452693-17.886463 14.905386-25.339156 22.358078-5.962154-2.981077-13.414847-7.452693-19.377001-11.924308 1.490539-11.924309 4.471616-22.358079 5.962154-34.282388-5.962154-4.471616-11.924309-10.43377-16.395924-16.395924-1.490539-1.490539-2.981077-2.981077-4.471616-5.962154-10.43377 2.981077-20.86754 4.471616-32.791849 7.452693h-1.490538c-4.471616-5.962154-7.452693-13.414847-11.924309-19.377002l22.358079-26.829694c-2.981077-5.962154-4.471616-13.414847-7.452693-20.86754-10.43377-2.981077-22.358079-4.471616-32.791849-5.962154-1.490539-7.452693-1.490539-14.905386-2.981077-22.358079 10.43377-4.471616 19.377001-10.43377 29.810772-14.905386 0-8.943231 0-16.395924 1.490538-23.848617-8.943231-5.962154-16.395924-11.924309-25.339155-17.886463 0 0-2.981077-1.490539-1.490539-2.981077 1.490539-5.962154 2.981077-11.924309 5.962154-17.886463 0-1.490539 0-1.490539 1.490539-2.981077 10.43377 0 20.86754 0 31.30131-1.490539 1.490539 0 2.981077 0 2.981077-1.490538 2.981077-5.962154 5.962154-10.43377 8.943231-16.395924 1.490539-1.490539 2.981077-4.471616 2.981078-5.962155-4.471616-10.43377-10.43377-19.377001-14.905386-29.810771 4.471616-5.962154 10.43377-10.43377 14.905386-16.395925l31.30131 13.414848c2.981077-2.981077 7.452693-5.962154 11.924308-7.452693 4.471616-2.981077 10.43377-5.962154 14.905386-8.943232v-1.490538-10.43377-20.86754l13.414847-4.471616c2.981077-1.490539 5.962154-1.490539 7.452693-2.981077 2.981077 10.43377 10.43377 17.886463 16.395924 26.829694 7.452693 0 13.414847-1.490539 20.86754-1.490538v-1.490539c4.471616-10.43377 8.943231-19.377001 13.414847-29.810771 7.452693 0 14.905386 1.490539 22.358079 1.490538 2.981077 10.43377 5.962154 20.86754 7.452693 31.30131 7.452693 1.490539 13.414847 2.981077 20.86754 5.962154 1.490539 0 2.981077 1.490539 4.471616 0 8.943231-4.471616 16.395924-11.924309 23.848617-17.886462 5.962154 4.471616 13.414847 7.452693 19.377001 11.924308-1.490539 10.43377-4.471616 20.86754-5.962154 31.30131 0 1.490539 2.981077 2.981077 4.471616 4.471616 4.471616 4.471616 8.943231 8.943231 13.414847 11.924309l31.30131-8.943232c1.490539 2.981077 2.981077 4.471616 4.471616 7.452693 2.981077 2.981077 4.471616 5.962154 7.452693 10.43377 0 0 1.490539 1.490539 0 2.981077-5.962154 8.943231-13.414847 17.886463-19.377002 26.829694 1.490539 4.471616 4.471616 8.943231 5.962154 13.414848l4.471616 13.414847c10.43377 2.981077 22.358079 4.471616 32.791849 5.962154 1.490539 7.452693 1.490539 14.905386 2.981077 22.358079-10.43377 4.471616-19.377001 10.43377-29.810772 14.905385 0 7.452693 0 16.395924-1.490538 23.848618 8.943231 5.962154 17.886463 13.414847 26.829694 19.377001-1.490539 5.962154-4.471616 11.924309-5.962154 17.886463 0 1.490539-1.490539 2.981077-1.490539 2.981077-11.924309 0-22.358079 0-34.282387 1.490539-2.981077 5.962154-5.962154 11.924309-8.943231 16.395924-1.490539 1.490539-2.981077 4.471616-2.981077 5.962154 4.471616 10.43377 10.43377 19.377001 14.905385 29.810772-4.471616 5.962154-10.43377 10.43377-14.905385 16.395924-7.452693-2.981077-16.395924-7.452693-26.829695-11.924309z m254.882096 73.036391c-1.490539 2.981077-2.981077 7.452693-2.981077 10.43377v1.490538h-20.86754c-1.490539 2.981077-2.981077 7.452693-5.962154 10.43377 0 1.490539-1.490539 2.981077-1.490539 2.981077l8.943232 17.886463c-2.981077 2.981077-5.962154 5.962154-8.943232 10.43377l-17.886463-8.943231c-2.981077 1.490539-4.471616 2.981077-7.452693 4.471615-2.981077 1.490539-5.962154 2.981077-8.943231 5.962155v20.86754c-2.981077 1.490539-5.962154 1.490539-8.943231 2.981077-1.490539 0-2.981077 1.490539-4.471616 1.490539-4.471616-4.471616-7.452693-10.43377-11.924309-14.905386-4.471616 1.490539-8.943231 1.490539-11.924308 1.490538-2.981077 5.962154-4.471616 11.924309-7.452693 17.886463v1.490539c-4.471616 0-8.943231-1.490539-13.414847-1.490539-1.490539-5.962154-2.981077-13.414847-4.471616-19.377001 0-1.490539-1.490539 0-1.490539-1.490539-4.471616-1.490539-7.452693-2.981077-11.924308-4.471616-5.962154 4.471616-10.43377 8.943231-16.395925 13.414848-4.471616-2.981077-7.452693-4.471616-11.924308-7.452693 1.490539-7.452693 2.981077-13.414847 4.471616-20.86754-2.981077-2.981077-7.452693-5.962154-10.43377-8.943232-4.471616 0-5.962154 0-5.962155-1.490538-5.962154 1.490539-13.414847 2.981077-19.377001 4.471615h-1.490539c-2.981077-4.471616-4.471616-7.452693-7.452693-11.924308 4.471616-5.962154 8.943231-10.43377 13.414848-16.395924-1.490539-4.471616-2.981077-7.452693-4.471616-11.924309-5.962154-1.490539-13.414847-2.981077-19.377002-4.471616 0-4.471616-1.490539-8.943231-1.490538-13.414847l17.886463-8.943231c0-4.471616 0-10.43377 1.490538-14.905386-4.471616-2.981077-10.43377-7.452693-14.905385-10.43377l-1.490539-1.490539c1.490539-2.981077 1.490539-7.452693 2.981077-10.43377v-1.490538H702.043668c1.490539-2.981077 2.981077-5.962154 5.962154-8.943232 0-1.490539 1.490539-2.981077 1.490539-2.981077l-8.943231-17.886463c2.981077-2.981077 5.962154-5.962154 8.943231-10.43377l17.886463 8.943232c2.981077-1.490539 4.471616-2.981077 7.452693-4.471616 2.981077-1.490539 5.962154-2.981077 8.943231-5.962154v-1.490539-5.962154-13.414847c2.981077-1.490539 5.962154-1.490539 8.943232-2.981078 1.490539 0 2.981077-1.490539 4.471615-1.490538 4.471616 4.471616 7.452693 10.43377 11.924309 14.905386 4.471616 0 7.452693-1.490539 11.924309-1.490539 2.981077-5.962154 4.471616-11.924309 7.452692-17.886463 4.471616 0 8.943231 0 13.414848 1.490539 1.490539 5.962154 2.981077 13.414847 4.471615 19.377001 4.471616 1.490539 8.943231 1.490539 11.924309 4.471616 1.490539 0 1.490539 1.490539 2.981077 0 4.471616-4.471616 8.943231-8.943231 14.905386-11.924309 4.471616 2.981077 7.452693 4.471616 11.924308 7.452693-1.490539 5.962154-2.981077 13.414847-2.981077 19.377002 0 1.490539 1.490539 1.490539 2.981077 2.981077 2.981077 2.981077 5.962154 4.471616 7.452693 7.452693 5.962154-1.490539 13.414847-4.471616 19.377002-5.962155 1.490539 1.490539 1.490539 2.981077 2.981077 4.471616 1.490539 1.490539 2.981077 4.471616 4.471616 5.962154 0 0 1.490539 1.490539 0 1.490539-4.471616 5.962154-7.452693 10.43377-11.924309 16.395924 1.490539 2.981077 2.981077 5.962154 2.981077 8.943232 1.490539 2.981077 1.490539 5.962154 2.981077 8.943231 5.962154 1.490539 13.414847 2.981077 19.377002 4.471616 1.490539 4.471616 1.490539 8.943231 1.490538 13.414847l-17.886463 8.943232c0 4.471616 0 10.43377-1.490538 14.905385 8.943231-2.981077 14.905386 1.490539 19.377001 5.962155z" />
</svg>