<svg class="icon" viewBox="0 0 1024 1024" version="1.1" xmlns="http://www.w3.org/2000/svg" width="18" height="18" fill="none">
  <g>
    <path style="fill:#E9E9E0;" d="M676.295 0H145.636c-14.791 0 -26.795 12.004 -26.795 35.214v970.524c0 6.315 12.004 18.261 26.738 18.261H878.364c14.791 0 26.738 -12.004 26.738 -18.261V237.284c0 -12.743 -1.707 -16.839 -4.722 -19.854L687.673 4.722a16.156 16.156 0 0 0 -11.378 -4.722z"/>
    <path style="fill:#D9D7CA;" points="37.5,0.151 37.5,12 49.349,12 	" d="M685.739 2.788v216.633h216.633Z"/>
    <path style="fill:#CC4B4C;" d="M356.807 609.337a29.241 29.241 0 0 1 -17.692 -5.973c-19.058 -14.279 -21.618 -30.151 -20.366 -41.017 3.356 -29.753 40.164 -60.928 109.454 -92.672a1234.716 1234.716 0 0 0 69.291 -196.551c-18.261 -39.708 -36.011 -91.25 -23.04 -121.458 4.551 -10.581 10.183 -18.716 20.708 -22.244a89.771 89.771 0 0 1 18.603 -3.129c9.216 0 17.294 11.89 23.04 19.172 5.404 6.884 17.636 21.447 -6.827 124.359 24.633 50.916 59.563 102.741 93.013 138.297a356.523 356.523 0 0 1 61.383 -6.542c28.615 0 45.966 6.656 53.077 20.423 5.86 11.378 3.47 24.69 -7.111 39.481a48.697 48.697 0 0 1 -40.619 21.788c-22.244 0 -48.128 -14.052 -77.028 -41.756 -51.883 10.866 -112.469 30.208 -161.451 51.598 -15.303 32.427 -29.924 58.596 -43.577 77.71 -18.716 26.226 -34.93 38.514 -50.916 38.514zm48.697 -93.753c-39.083 21.959 -55.012 39.993 -56.149 50.176 -0.171 1.707 -0.683 6.087 7.908 12.629 2.731 -0.853 18.66 -8.135 48.299 -62.805zm249.344 -81.237c14.905 11.492 18.546 17.237 28.274 17.237 4.267 0 16.498 -0.171 22.13 -8.078a28.103 28.103 0 0 0 4.21 -7.566c-2.276 -1.195 -5.234 -3.584 -21.504 -3.584 -9.216 0 -20.821 0.398 -33.109 1.991zM518.258 313.97a1303.609 1303.609 0 0 1 -48.924 138.297 913.692 913.692 0 0 1 118.784 -36.921 624.981 624.981 0 0 1 -69.916 -101.376zm-11.093 -154.738c-1.82 0.626 -24.348 32.142 1.764 58.823 17.351 -38.684 -0.967 -59.051 -1.764 -58.823z"/>
    <path style="fill:#CC4B4C;" d="M878.364 1024H145.636a26.738 26.738 0 0 1 -26.795 -26.738v-284.103H905.102v284.103a26.738 26.738 0 0 1 -26.738 26.738z"/>
    <g>
      <path style="fill:#FFFFFF;" d="M317.895 969.159h-29.98v-184.263h53.02c7.851 0 15.588 1.252 23.268 3.755 7.68 2.503 14.564 6.258 20.651 11.264 6.087 5.006 11.036 11.036 14.734 18.148s5.632 15.019 5.632 23.893c0 9.33 -1.593 17.806 -4.779 25.372a53.02 53.02 0 0 1 -13.255 19.115c-5.689 5.177 -12.516 9.159 -20.48 12.004s-16.839 4.267 -26.51 4.267h-22.244v66.446zm0 -161.508v72.988h27.477a32.825 32.825 0 0 0 10.866 -1.877 27.648 27.648 0 0 0 17.124 -18.034 56.434 56.434 0 0 0 1.479 -29.241 29.924 29.924 0 0 0 -5.12 -11.264 30.322 30.322 0 0 0 -10.866 -8.988 40.789 40.789 0 0 0 -18.489 -3.641h-22.471z"/>
      <path style="fill:#FFFFFF;" d="M589.141 871.879c0 15.132 -1.65 28.103 -4.892 38.855s-7.396 19.74 -12.402 27.022 -10.638 12.971 -16.896 17.124 -12.288 7.282 -18.148 9.387a74.866 74.866 0 0 1 -15.986 3.982 101.831 101.831 0 0 1 -10.752 0.853H440.32v-184.206h55.524c15.531 0 29.127 2.446 40.846 7.396s21.504 11.492 29.241 19.627 13.54 17.465 17.351 27.876c3.868 10.411 5.746 21.163 5.746 32.142zm-88.974 75.264c20.309 0 34.987 -6.485 43.975 -19.513s13.483 -31.858 13.483 -56.491a96.142 96.142 0 0 0 -2.731 -22.756c-1.82 -7.509 -5.404 -14.279 -10.638 -20.366s-12.402 -11.036 -21.39 -14.734 -20.651 -5.632 -34.987 -5.632h-17.522v139.492h29.753z"/>
      <path style="fill:#FFFFFF;" d="M663.154 807.652v58.027h77.028v20.48h-77.028v83.001h-30.492v-184.263h115.2v22.756h-84.764z"/>
    </g>
  </g>
</svg>
