<svg class="icon" viewBox="0 0 1024 1024" version="1.1" xmlns="http://www.w3.org/2000/svg" width="18" height="18">
    <path d="M512 972.8a460.8 460.8 0 1 1 0-921.6 460.8 460.8 0 0 1 0 921.6z m0-54.2208A406.5792 406.5792 0 1 0 512 105.472a406.5792 406.5792 0 0 0 0 813.1584z"/>
    <path d="M507.136 403.2c27.6992 0 41.5744 12.4928 41.5744 37.4784v298.4448c0 24.9856-13.824 37.4784-41.5744 37.4784-13.1584 0-23.3984-2.816-30.6688-8.4992-7.2704-5.6832-10.9056-15.8208-10.9056-30.3616V442.0096c0-14.5408 3.6352-24.6272 10.9056-30.3104 7.2704-5.632 17.5104-8.4992 30.6688-8.4992z m0-54.528a44.8512 44.8512 0 0 1-33.024-13.312 44.8512 44.8512 0 0 1-13.312-33.024c0-13.1584 4.4544-24.1664 13.312-33.024A44.8512 44.8512 0 0 1 507.136 256c13.1584 0 24.1664 4.4544 33.024 13.312 8.9088 8.8576 13.312 19.8656 13.312 33.024a44.8512 44.8512 0 0 1-13.312 33.024 44.8512 44.8512 0 0 1-33.024 13.312z" />
</svg>