<svg class="icon" viewBox="0 0 1024 1024" version="1.1" xmlns="http://www.w3.org/2000/svg" width="18" height="18">
  <path d="M469.333333 85.333333q82.986667 0 160.682667 31.317333 79.658667 32.341333 141.013333 93.653333 0.341333 0.341333 125.013333 122.325333l0-162.005333q0-17.664 12.501333-30.165333t30.165333-12.501333 30.165333 12.501333 12.501333 30.165333l0 256q0 17.664-12.501333 30.165333t-30.165333 12.501333l-256 0q-17.664 0-30.165333-12.501333t-12.501333-30.165333 12.501333-30.165333 30.165333-12.501333l144 0q-92.672-89.984-116.010667-113.322667-49.664-49.664-112.981333-75.008-61.013333-25.002667-128.341333-25.002667t-128.341333 25.002667q-63.658667 25.344-112.981333 75.008-49.322667 49.322667-75.008 112.981333-25.002667 61.013333-25.002667 128.341333t25.002667 128.341333q25.685333 63.658667 75.008 112.981333 49.322667 49.664 112.981333 75.008 61.013333 25.002667 128.341333 25.002667t128.341333-25.002667q63.317333-25.344 112.981333-75.008 55.338667-55.338667 80.682667-127.658667 5.674667-16.682667 21.674667-24.149333t32.682667-1.834667q16.682667 6.016 24.32 22.016t1.664 32.682667q-15.317333 43.648-41.514667 85.333333t-59.178667 73.984q-61.312 61.312-141.013333 93.653333-77.653333 31.317333-160.682667 31.317333t-160.682667-31.317333q-79.658667-32.341333-141.013333-93.653333t-93.653333-141.013333q-31.317333-77.653333-31.317333-160.682667t31.317333-160.682667q32.341333-79.658667 93.653333-141.013333t141.013333-93.653333q77.653333-31.317333 160.682667-31.317333z" />
</svg>