<svg class="icon" viewBox="0 0 1024 1024" version="1.1" xmlns="http://www.w3.org/2000/svg" width="18" height="18">
    <path d="M0 0m256 0l512 0q256 0 256 256l0 512q0 256-256 256l-512 0q-256 0-256-256l0-512q0-256 256-256Z" fill="none" class=""/>
    <path d="M512 320m-140.8 0a140.8 140.8 0 1 0 281.6 0 140.8 140.8 0 1 0-281.6 0Z" fill="#4c7d4f" class=""/>
    <path d="M204.8 576m134.4 0l358.4 0q134.4 0 134.4 134.4l0 0q0 134.4-134.4 134.4l-358.4 0q-134.4 0-134.4-134.4l0 0q0-134.4 134.4-134.4Z" fill="#4c7d4f" class=""/>
</svg>